<?xml version="1.0" standalone="no"?>
<!DOCTYPE svg PUBLIC "-//W3C//DTD SVG 20010904//EN"
 "http://www.w3.org/TR/2001/REC-SVG-20010904/DTD/svg10.dtd">
<svg version="1.0" xmlns="http://www.w3.org/2000/svg"
 width="1024.000000pt" height="1024.000000pt" viewBox="0 0 1024.000000 1024.000000"
 preserveAspectRatio="xMidYMid meet">
<metadata>
Created by potrace 1.14, written by Peter Selinger 2001-2017
</metadata>
<g transform="translate(0.000000,1024.000000) scale(0.100000,-0.100000)"
fill="#000000" stroke="none">
<path d="M0 5120 l0 -5120 5120 0 5120 0 0 5120 0 5120 -5120 0 -5120 0 0
-5120z m5217 4538 c4 -7 8 -29 9 -48 1 -19 9 -109 18 -200 9 -91 16 -173 16
-182 0 -36 -180 -15 -246 28 -48 32 -44 43 95 271 47 78 89 143 93 143 4 0 10
-6 15 -12z m86 -130 c31 -48 74 -121 97 -162 l41 -74 -31 -26 c-28 -23 -128
-61 -137 -52 -3 2 20 11 49 20 62 18 94 46 84 73 -11 28 -93 172 -136 238 -21
33 -39 67 -39 75 -1 19 7 9 72 -92z m1057 -209 c67 -10 170 -51 170 -67 0 -4
-19 -19 -42 -32 -24 -13 -67 -41 -97 -62 -30 -21 -90 -49 -137 -64 -46 -15
-89 -33 -95 -40 -13 -16 -17 -13 82 -39 82 -20 150 -59 212 -120 46 -46 104
-131 95 -140 -2 -3 -28 4 -57 15 -29 11 -97 26 -151 32 -160 19 -217 6 -545
-121 -164 -63 -265 -80 -372 -62 -41 7 -90 19 -109 27 l-34 14 0 242 0 241 58
-9 c88 -14 220 -9 292 10 36 10 131 44 211 76 247 99 372 123 519 99z m-1013
-121 c-3 -8 -6 -5 -6 6 -1 11 2 17 5 13 3 -3 4 -12 1 -19z m-177 -154 c0 -2
-6 -4 -14 -4 -21 0 -29 17 -21 48 l7 27 14 -34 c8 -18 14 -35 14 -37z m-10
-351 c3 -166 3 -300 0 -298 -3 2 -7 -20 -8 -48 -1 -37 1 -48 8 -37 7 11 10 8
10 -17 0 -17 6 -34 13 -36 6 -3 -1 -6 -16 -6 l-28 -1 5 178 c4 127 3 168 -4
145 -6 -18 -9 -99 -8 -180 l3 -148 35 -3 c19 -2 39 -7 44 -12 14 -14 -63 -24
-100 -12 -33 10 -34 10 -34 -20 0 -21 6 -31 20 -35 15 -4 20 -14 20 -42 0 -36
-71 -484 -110 -696 -11 -60 -26 -143 -32 -182 -6 -40 -16 -73 -21 -73 -5 0
-46 17 -91 39 -86 40 -177 121 -213 188 l-18 34 54 102 c29 56 59 109 66 117
29 34 136 245 126 248 -7 2 -11 34 -11 81 l0 77 40 23 40 22 0 183 c0 216 -1
212 109 265 l71 35 0 209 c0 162 3 208 13 205 9 -4 13 -77 17 -305z m200 -148
c85 -60 91 -71 53 -105 -17 -15 -35 -29 -41 -31 -7 -3 -12 -50 -14 -121 -1
-65 -5 -118 -8 -118 -3 0 -17 24 -33 53 -25 49 -28 64 -34 210 -4 98 -3 157 3
157 6 0 39 -20 74 -45z m-645 -220 c54 -26 144 -99 135 -109 -3 -3 -94 -48
-201 -99 -111 -54 -199 -102 -202 -112 -4 -9 -7 -100 -7 -201 0 -167 -5 -206
-24 -175 -4 5 -43 -7 -89 -26 -127 -54 -117 -56 -117 26 0 39 -2 71 -4 71 -4
0 -95 -41 -273 -121 -23 -11 -47 -27 -52 -37 -9 -16 -14 -183 -12 -394 l1 -78
60 -30 c61 -31 80 -52 80 -90 0 -12 3 -19 8 -17 4 3 5 -45 2 -106 -5 -107 -6
-112 -27 -110 -11 1 -127 54 -257 117 l-236 115 -1 156 c0 85 -1 169 -1 185 0
17 1 121 1 231 l1 202 38 35 c20 20 36 40 34 45 -1 4 2 6 8 2 5 -3 22 1 37 9
16 8 24 15 20 16 -5 0 -17 -5 -28 -10 -14 -8 -19 -7 -19 1 0 15 79 89 95 89 7
0 18 7 25 15 9 11 33 15 84 15 73 0 96 -9 156 -60 19 -16 10 -14 -39 10 -118
58 -70 25 82 -56 l152 -81 5 171 c3 112 9 179 18 193 7 13 34 34 60 48 26 13
44 24 40 25 -13 0 43 50 56 50 8 0 16 6 19 14 3 7 20 16 39 19 48 7 109 32
101 41 -4 4 0 4 10 0 17 -6 17 -7 0 -20 -28 -21 -14 -17 72 21 44 19 84 35 88
35 5 0 32 -11 62 -25z m1220 -67 c179 -84 243 -119 272 -150 20 -21 22 -36 25
-180 2 -86 6 -159 9 -163 4 -3 71 26 149 65 137 68 143 71 178 59 59 -19 206
-95 241 -124 62 -53 61 -48 59 -452 -2 -344 -2 -355 -8 -163 -4 113 -8 284 -9
381 0 97 -4 178 -7 181 -4 5 -269 -114 -316 -142 -16 -9 -18 -31 -18 -227 0
-205 -1 -215 -17 -201 -21 18 -123 71 -123 63 0 -2 25 -17 56 -33 l56 -29 -76
-31 -76 -31 0 71 c0 62 2 69 18 64 16 -6 16 -5 0 8 -13 10 -18 28 -18 69 0 53
-14 82 -29 59 -7 -12 -168 -93 -281 -141 -112 -49 -110 -44 -111 -240 0 -91
-4 -175 -9 -186 -8 -19 -9 -19 -9 2 -1 29 -18 33 -60 12 -68 -32 -233 -90
-239 -84 -4 4 -8 54 -10 113 l-4 107 51 18 51 18 0 148 c0 172 -1 169 110 219
36 16 123 57 194 92 112 54 131 61 153 51 13 -6 26 -11 28 -11 1 0 1 44 -2 99
-7 117 -1 148 32 163 l25 11 0 163 c0 89 -2 169 -5 177 -5 11 -27 6 -113 -28
-59 -23 -115 -45 -125 -48 -16 -6 -17 -22 -15 -194 l3 -187 90 -35 c49 -19 85
-36 79 -38 -6 -2 -36 8 -68 22 -31 14 -63 25 -70 25 -10 0 -17 -20 -22 -62 -5
-35 -8 -68 -7 -75 0 -9 -7 -9 -31 2 -17 7 -89 38 -161 69 l-130 55 -81 148
-81 148 26 6 c25 7 25 7 -4 8 -28 1 -34 8 -68 77 l-38 77 21 22 c18 19 27 22
53 14 17 -5 35 -13 41 -19 21 -21 26 -7 26 73 0 52 5 89 13 98 31 39 171 101
207 93 14 -3 93 -37 175 -76z m-1504 -873 c100 -52 188 -100 195 -107 7 -8 13
-68 17 -168 l4 -155 -12 130 c-7 72 -13 118 -14 103 -1 -28 -14 -34 -46 -21
-15 5 -14 8 6 20 24 13 24 13 -5 7 -16 -4 -41 -13 -55 -20 -14 -8 -31 -14 -37
-14 -20 0 -24 -39 -24 -226 l0 -181 133 -61 c72 -33 134 -58 137 -55 10 10
-43 43 -130 79 -95 39 -114 53 -105 76 5 14 125 88 168 104 20 7 23 34 5 52
-16 16 -5 15 37 -2 l35 -15 0 34 c0 19 8 41 17 51 24 23 199 104 226 104 12 0
46 -9 75 -20 69 -26 106 -25 186 5 37 14 75 25 87 25 24 0 127 -51 188 -93
l44 -30 -74 -38 c-41 -21 -123 -59 -184 -85 -60 -26 -118 -54 -127 -62 -16
-14 -18 -43 -18 -338 l0 -323 -37 13 c-53 20 -342 153 -370 171 -17 12 -23 26
-25 58 l-1 42 -6 -42 -6 -41 -330 159 c-181 88 -333 165 -337 172 -4 7 -8 76
-8 155 0 165 2 161 -98 211 -45 23 -62 37 -60 49 4 23 65 61 108 68 l37 6 5
90 c5 78 9 93 29 114 25 24 155 94 176 94 6 0 94 -43 194 -95z m-404 -427 c-3
-8 -6 -5 -6 6 -1 11 2 17 5 13 3 -3 4 -12 1 -19z m620 -30 c-3 -8 -6 -5 -6 6
-1 11 2 17 5 13 3 -3 4 -12 1 -19z m1203 -203 c0 -6 -56 -35 -67 -35 -4 1 8 9
27 20 39 22 40 22 40 15z m-120 -60 c-25 -13 -52 -24 -60 -24 -16 0 78 47 95
48 6 0 -10 -11 -35 -24z m-1954 -132 c25 -51 50 -93 56 -93 6 0 48 -18 92 -39
45 -22 109 -52 143 -68 55 -25 83 -53 83 -83 0 -12 -110 37 -220 98 -113 63
-113 63 -48 1 48 -46 57 -61 63 -101 l7 -48 109 -60 c60 -33 114 -60 118 -60
20 0 31 -70 31 -191 0 -76 -4 -130 -10 -134 -13 -8 -3 -25 13 -25 9 0 11 31 9
114 -2 63 2 133 8 156 l11 41 265 -136 c145 -74 282 -146 304 -160 22 -14 45
-25 52 -25 7 -1 76 -34 153 -74 l140 -73 7 -114 c3 -63 5 -115 4 -117 -2 -1
-29 9 -61 23 -80 36 -78 26 3 -13 l67 -32 -3 -227 c-2 -125 -5 -229 -6 -231
-2 -1 -57 18 -122 44 -160 62 -151 59 -139 46 6 -5 59 -29 119 -51 60 -23 120
-48 133 -56 l24 -16 -7 -307 c-3 -169 -8 -309 -10 -312 -9 -9 -513 178 -588
218 -17 9 -34 15 -38 14 -18 -5 -306 121 -332 146 -17 15 -23 18 -13 6 9 -11
14 -24 10 -28 -5 -4 -3 -7 2 -5 6 1 37 -10 70 -25 123 -57 581 -248 605 -253
40 -8 268 -94 282 -107 10 -8 12 -60 8 -232 l-5 -222 -170 67 -170 68 -5 154
c-5 135 -6 142 -9 59 -2 -52 -6 -118 -9 -147 l-7 -51 -175 69 c-211 84 -370
150 -448 186 -31 14 -61 27 -67 28 -5 2 -74 29 -153 60 -79 32 -146 55 -149
51 -12 -11 10 -24 117 -66 58 -23 110 -46 116 -51 7 -5 16 -8 20 -7 5 1 58
-19 119 -46 60 -26 263 -111 450 -187 469 -192 538 -222 543 -236 2 -7 -3 -13
-11 -13 -9 0 -17 -3 -20 -7 -2 -5 -2 -2 -1 5 2 6 2 12 1 13 -1 0 -30 3 -64 5
-59 5 -63 4 -63 -15 0 -17 6 -21 35 -21 28 0 35 -4 35 -20 0 -13 7 -20 20 -20
14 0 20 -7 20 -21 0 -19 -4 -21 -50 -17 -28 3 -50 0 -50 -5 0 -5 -7 -7 -15 -3
-18 6 -20 -10 -3 -20 6 -4 14 -2 16 4 5 15 32 16 32 2 0 -5 -8 -10 -17 -11
-10 0 6 -10 35 -21 29 -12 51 -23 48 -25 -7 -8 -185 70 -183 80 1 5 -4 12 -12
15 -8 3 -11 0 -7 -7 4 -6 -14 -3 -41 8 -143 57 -169 73 -156 95 3 5 1 6 -6 2
-6 -4 -9 -12 -6 -17 9 -13 4 -12 -69 19 -37 16 -63 32 -59 37 5 4 2 5 -4 1 -7
-4 -95 28 -195 70 -101 42 -275 115 -388 161 -113 47 -211 87 -218 90 -10 4
-10 0 -2 -18 8 -17 35 -34 88 -55 218 -89 1034 -434 1041 -440 2 -2 0 -11 -4
-21 -4 -10 -8 -29 -8 -43 0 -23 0 -23 -4 -2 -3 14 -12 22 -26 23 -19 1 -18 2
8 14 17 8 25 14 18 15 -6 0 -20 3 -30 7 -10 3 -15 3 -11 -2 10 -10 -21 -34
-44 -35 -10 0 -18 -6 -18 -14 0 -7 -6 -19 -14 -25 -12 -10 -13 -9 -9 7 6 24
-34 42 -47 22 -10 -16 -59 17 -60 40 -1 9 -4 10 -6 4 -3 -8 -34 3 -87 29 -76
39 -88 41 -172 43 l-90 1 78 -6 c42 -3 77 -10 76 -16 -1 -5 -19 -25 -40 -43
-38 -32 -39 -36 -39 -95 l0 -62 -57 -1 c-69 0 -125 -26 -171 -78 -16 -19 -32
-33 -34 -31 -5 6 -8 -33 -16 -221 l-7 -181 -52 15 -53 15 0 93 c0 58 -4 94
-10 94 -9 0 -183 63 -260 94 -14 6 -18 -13 -29 -121 -8 -85 -17 -133 -27 -144
-19 -21 -27 -15 131 -79 72 -29 139 -59 150 -66 11 -8 23 -14 27 -14 4 0 10
27 14 61 7 59 7 61 33 55 14 -3 40 -9 57 -12 l31 -6 -5 -91 -5 -90 -76 -101
c-42 -56 -103 -154 -135 -218 -33 -64 -64 -114 -69 -111 -6 3 -7 1 -3 -6 4 -6
-2 -28 -15 -49 -19 -33 -79 -194 -79 -214 0 -5 17 -6 38 -2 31 5 60 -4 171
-50 74 -31 136 -55 138 -53 2 2 -29 18 -69 35 -40 16 -72 34 -71 39 0 4 -21
21 -48 36 -34 20 -49 35 -50 50 0 21 -1 21 -10 2 -9 -19 -9 -19 -5 2 2 12 -1
24 -7 26 -23 7 5 25 51 31 54 7 66 3 314 -106 l146 -65 11 26 c10 24 10 24 -3
8 -14 -18 -18 -17 -108 21 -139 60 -265 121 -250 121 9 1 10 6 2 20 -11 22
-14 71 -2 56 4 -5 16 -11 27 -13 11 -1 -7 12 -40 29 -51 27 -57 33 -40 40 41
16 78 7 260 -61 103 -39 189 -69 191 -67 2 2 -77 34 -176 72 -152 57 -178 70
-164 80 11 8 15 20 11 34 -4 16 -1 21 16 22 15 0 5 9 -30 25 -29 13 -53 26
-53 28 0 2 19 11 43 19 42 14 45 13 157 -29 119 -45 163 -54 65 -13 -46 19
-63 33 -96 81 -21 32 -37 58 -34 58 2 0 28 -9 56 -20 28 -12 53 -19 55 -17 2
2 -34 19 -81 38 -47 19 -83 38 -82 43 2 6 40 31 86 57 83 48 99 51 156 29 13
-5 33 -7 42 -4 13 4 14 3 5 -3 -9 -7 -1 -14 30 -24 24 -7 49 -12 57 -11 8 2
10 -1 6 -9 -5 -7 -3 -10 6 -7 8 3 52 -13 97 -34 46 -21 86 -38 89 -38 3 0 3
129 1 288 -4 266 -6 291 -27 349 -33 90 -92 177 -151 219 l-50 36 0 68 0 69
44 35 c23 20 49 36 56 36 32 0 136 -69 185 -122 66 -71 83 -98 60 -98 -8 0
-15 -4 -15 -10 0 -5 -13 -10 -28 -10 -15 0 -33 -5 -39 -11 -9 -9 -19 -4 -39
17 l-26 29 26 -37 c37 -52 86 -164 92 -213 l6 -40 -48 2 -49 3 57 -13 c32 -7
59 -15 62 -18 2 -2 7 -46 10 -96 6 -74 5 -93 -6 -93 -10 0 -11 -2 0 -8 10 -7
12 -58 10 -230 l-3 -221 33 -13 34 -13 -86 -113 c-147 -195 -316 -491 -330
-577 l-6 -40 14 30 c13 30 76 101 76 86 0 -4 -9 -33 -19 -64 -11 -32 -16 -57
-10 -57 23 0 77 29 95 51 21 26 64 52 80 48 21 -6 101 13 129 31 16 11 39 18
50 16 11 -2 14 -1 8 1 -10 3 -13 46 -15 161 -1 86 -2 171 -2 188 -1 17 -8 39
-16 49 -13 16 -11 21 27 54 22 20 59 49 81 65 l40 27 116 -45 c63 -25 121 -46
129 -46 7 0 45 11 84 24 81 28 116 24 210 -20 55 -27 73 -48 56 -65 -5 -5 -84
-39 -174 -76 -90 -36 -167 -68 -171 -72 -4 -3 -8 -89 -9 -191 l-2 -185 26 3
c14 2 60 14 102 27 41 12 72 19 69 14 -7 -13 7 -11 55 6 23 8 52 16 65 18 13
1 38 17 56 35 45 46 84 63 139 64 50 0 113 -21 126 -43 5 -8 4 -10 -3 -5 -12
7 -49 -8 -44 -18 6 -15 0 -24 -23 -34 -15 -7 -36 -34 -53 -69 l-28 -58 -46 3
c-42 3 -47 1 -50 -20 -2 -19 -8 -23 -33 -21 -16 1 -42 8 -57 14 -24 10 -26 14
-16 27 11 13 10 14 -10 3 -60 -32 59 -73 217 -75 123 -2 205 14 266 50 42 24
43 26 33 55 -6 17 -38 52 -73 82 -62 50 -76 69 -38 48 23 -12 188 -17 219 -7
24 7 74 -9 86 -27 21 -33 2 -66 -43 -77 l-34 -8 40 -1 c41 -1 85 21 85 41 0 6
-7 19 -15 28 -13 14 -13 19 -2 28 17 15 88 22 108 11 9 -5 32 -4 53 2 27 7 41
7 51 -1 8 -6 46 -11 85 -11 39 0 81 -4 92 -8 13 -5 36 -3 57 5 20 7 70 22 111
34 41 12 89 26 106 31 17 5 38 9 48 9 9 0 31 8 49 17 60 32 177 10 177 -33 0
-26 -43 -54 -84 -55 -32 0 -37 -2 -21 -9 56 -24 208 0 257 40 27 23 30 28 19
49 -22 40 -95 64 -181 58 -59 -3 -69 -2 -45 6 35 12 55 30 55 49 0 9 14 15 38
16 20 2 39 7 40 12 2 6 12 10 23 10 10 0 19 5 19 10 0 15 30 12 31 -2 0 -10 2
-10 6 0 2 6 22 12 43 12 21 0 41 4 44 9 5 8 44 19 133 37 12 2 29 11 37 20 9
8 16 11 16 5 0 -7 8 -7 25 1 14 6 25 17 25 24 0 15 23 24 61 24 16 0 29 5 29
10 0 6 6 10 13 10 7 0 19 9 27 20 8 11 19 20 26 20 17 0 32 42 26 79 -3 21 0
36 8 41 10 6 9 23 -4 81 -10 41 -23 88 -29 104 -7 17 -11 33 -9 38 1 4 -3 7
-9 7 -5 0 -7 5 -3 11 3 6 0 15 -7 20 -12 8 -12 10 0 18 9 6 11 18 7 35 -8 33
0 33 38 -1 17 -15 3 1 -31 36 -38 38 -67 60 -74 55 -7 -4 -9 -3 -5 4 5 9 -57
53 -133 92 -23 12 -23 11 -18 -27 5 -41 -10 -132 -24 -147 -5 -6 -9 4 -9 25 0
54 -29 160 -55 205 -56 95 -152 150 -250 142 -69 -6 -74 13 -10 38 54 20 58
41 21 119 -51 109 -169 192 -291 204 -72 7 -165 -3 -203 -23 l-27 -14 7 -133
c8 -142 4 -188 -6 -67 -4 40 -15 177 -26 303 -10 127 -26 325 -35 440 -8 116
-22 287 -30 380 -24 262 -53 619 -70 850 -27 358 -74 933 -91 1093 -17 170
-18 167 46 203 31 17 45 37 75 100 38 81 110 199 121 199 4 0 1 -6 -5 -14 -15
-18 -23 -56 -11 -56 4 0 10 6 13 13 3 8 11 5 24 -10 11 -13 24 -23 29 -23 5 0
15 -9 22 -20 7 -11 19 -20 27 -20 9 0 15 -9 15 -21 0 -15 5 -19 15 -15 8 3 15
1 15 -5 0 -13 20 -33 43 -42 9 -3 22 -17 28 -30 6 -13 26 -30 45 -37 19 -8 34
-20 34 -27 0 -7 5 -13 10 -13 6 0 10 -6 10 -12 0 -7 16 -26 35 -43 19 -16 35
-36 35 -43 0 -7 11 -18 25 -24 14 -6 25 -20 25 -31 0 -14 5 -18 19 -14 15 3
36 -12 81 -59 34 -35 66 -64 71 -64 5 0 9 -9 9 -20 0 -13 7 -20 18 -20 10 0
24 -9 32 -20 8 -11 19 -20 25 -20 5 0 18 -17 28 -38 9 -20 49 -71 87 -112 38
-41 70 -81 70 -87 0 -7 5 -13 10 -13 6 0 10 -6 10 -14 0 -8 7 -16 15 -20 8 -3
23 -21 32 -41 10 -21 24 -35 35 -35 11 0 18 -7 18 -20 0 -13 7 -20 18 -20 12
0 26 -17 42 -50 13 -27 32 -57 42 -67 10 -9 18 -25 18 -36 0 -11 8 -27 18 -36
9 -9 30 -41 46 -71 28 -52 36 -64 62 -93 6 -7 16 -33 22 -58 6 -25 31 -84 55
-130 24 -46 50 -104 58 -129 7 -25 19 -51 26 -58 7 -7 13 -20 13 -28 0 -8 9
-31 20 -51 11 -21 20 -50 20 -65 0 -16 4 -28 9 -28 5 0 17 -26 26 -57 10 -32
26 -76 36 -99 11 -22 19 -48 19 -57 0 -9 4 -26 9 -39 6 -13 12 -40 16 -61 4
-23 10 -35 17 -31 7 4 8 -1 3 -16 -4 -13 -1 -38 7 -59 31 -75 48 -140 48 -178
0 -22 4 -64 9 -94 5 -30 12 -101 16 -158 3 -57 9 -109 12 -115 6 -9 22 -275
25 -406 4 -237 -189 -680 -402 -924 -42 -48 -50 -63 -50 -97 0 -68 -30 -181
-65 -244 -38 -67 -119 -165 -180 -216 -22 -19 -49 -43 -60 -55 -31 -33 -187
-132 -284 -180 -365 -181 -936 -338 -1441 -394 -352 -40 -880 -53 -1190 -30
-241 18 -670 77 -702 97 -6 3 -29 7 -52 9 -22 2 -71 12 -109 22 -57 17 -69 17
-75 5 -7 -11 -14 -9 -36 12 -15 14 -33 25 -39 25 -29 0 -252 70 -255 79 -2 6
-7 9 -12 6 -5 -3 -57 12 -117 34 -335 121 -575 261 -750 437 -85 85 -109 117
-142 186 -32 67 -42 100 -47 160 -7 74 -8 78 -64 146 -67 82 -147 206 -206
317 -58 110 -117 254 -110 272 3 8 1 11 -4 8 -6 -3 -11 4 -12 17 -2 37 -3 42
-16 65 -13 23 -17 46 -4 26 4 -6 6 68 4 165 -2 113 3 228 13 317 8 77 19 178
24 225 9 90 22 162 52 300 10 47 24 112 30 145 7 33 19 69 26 81 7 11 22 52
32 90 21 74 48 156 61 189 5 11 11 39 14 63 4 27 16 53 31 68 14 14 25 36 25
49 0 13 5 27 10 30 6 3 10 14 10 23 0 10 18 51 40 92 22 41 40 85 40 98 0 12
7 25 15 28 8 4 15 11 15 18 1 6 20 32 44 59 24 26 51 65 62 87 10 22 22 40 27
40 4 0 7 9 7 20 0 12 7 20 16 20 9 0 14 6 11 13 -3 7 4 19 14 25 10 7 19 19
19 27 0 8 4 15 8 15 5 0 19 21 32 46 13 25 37 56 52 69 15 13 28 33 28 44 0
12 6 21 14 21 8 0 16 7 20 15 3 8 12 15 21 15 8 0 15 5 15 11 0 6 15 26 33 45
95 99 100 106 86 116 -11 7 -11 11 -1 15 6 2 12 10 12 16 0 7 9 18 20 25 11 7
20 21 20 31 0 14 5 18 20 14 15 -4 20 0 20 16 0 14 6 21 20 21 16 0 20 7 20
30 0 23 4 30 20 30 13 0 20 7 20 20 0 13 7 20 20 20 16 0 20 7 20 30 0 23 4
30 20 30 11 0 20 5 20 10 0 6 9 10 20 10 15 0 20 7 20 25 0 29 40 75 65 75 8
0 15 9 15 20 0 13 7 20 20 20 13 0 20 7 20 20 0 11 7 20 15 20 8 0 38 23 67
50 29 28 58 50 65 50 7 0 12 5 10 12 -1 7 8 17 21 23 12 5 22 17 22 25 0 9 9
22 20 30 11 8 20 22 20 32 0 13 8 18 25 18 20 0 25 5 25 25 0 14 3 24 8 24 24
-4 43 4 71 30 16 15 27 31 24 35 -3 3 2 6 12 6 18 0 18 1 -1 15 -10 8 -15 15
-10 15 5 0 5 6 0 13 -5 7 1 1 14 -13 13 -14 43 -67 68 -117z m709 -422 c22 -7
77 -29 122 -49 67 -30 85 -43 93 -66 5 -16 8 -31 6 -34 -3 -2 -65 26 -139 63
-120 59 -134 69 -134 92 0 14 2 21 6 16 3 -6 24 -16 46 -22z m540 -256 c6 0
38 -6 73 -14 l62 -14 0 -44 c0 -25 -4 -43 -8 -41 -106 43 -162 74 -157 86 3 7
5 23 6 35 0 16 2 18 7 7 4 -8 12 -15 17 -15z m815 -331 l38 6 7 -213 c4 -117
3 -237 -2 -267 l-8 -55 -43 53 -42 54 1 236 c1 131 4 224 6 208 4 -27 7 -28
43 -22z m132 -1955 c-23 -4 -47 -11 -52 -14 -6 -3 -10 -4 -10 0 0 10 44 24 75
23 24 0 22 -2 -13 -9z m-72 -22 c0 -2 -10 -12 -22 -23 l-23 -19 19 23 c18 21
26 27 26 19z m-847 -84 c66 -27 117 -54 117 -61 0 -9 -7 -11 -22 -7 -16 4 -19
3 -9 -3 11 -8 11 -11 0 -16 -8 -3 -5 -4 6 -1 19 5 20 1 16 -88 l-5 -92 -7 78
c-7 86 -18 113 -20 51 -1 -21 -3 -31 -6 -21 -4 14 -16 17 -64 17 -33 0 -59 4
-59 10 0 6 -11 10 -25 10 -20 0 -25 5 -27 28 -1 15 -4 -7 -8 -48 -6 -72 -6
-70 -8 42 -1 64 -5 123 -8 132 -9 23 -1 21 129 -31z m102 -1 c-3 -3 -11 0 -18
7 -9 10 -8 11 6 5 10 -3 15 -9 12 -12z m-268 -119 c-2 -16 -4 -3 -4 27 0 30 2
43 4 28 2 -16 2 -40 0 -55z m1100 -300 c-2 -32 -3 -6 -3 57 0 63 1 89 3 58 2
-32 2 -84 0 -115z m-1616 -56 c2 -75 7 -137 11 -137 4 0 9 55 9 123 1 67 4
112 6 99 3 -17 9 -21 24 -17 15 5 19 2 19 -14 0 -14 6 -21 19 -21 15 0 21 8
24 38 2 20 4 -25 5 -101 l2 -138 -22 5 c-30 8 -17 1 67 -33 69 -28 70 -29 73
-69 l3 -41 -144 58 c-149 60 -191 80 -169 81 6 0 12 8 12 18 0 10 -6 24 -12
31 -11 11 -8 12 12 6 14 -4 31 -10 39 -13 9 -3 12 -1 7 6 -4 7 -15 12 -24 12
-14 0 -13 2 3 14 12 9 19 27 19 57 5 151 6 182 10 178 3 -2 6 -66 7 -142z
m737 46 c34 -14 62 -30 62 -35 0 -14 -16 -10 -111 28 -75 31 -93 35 -101 23
-8 -11 -9 -10 -4 4 3 9 1 17 -3 17 -5 0 -11 6 -14 14 -6 16 56 -2 171 -51z
m-83 -11 c-3 -3 -11 0 -18 7 -9 10 -8 11 6 5 10 -3 15 -9 12 -12z m-494 -79
c0 -15 2 -15 9 2 6 14 9 2 9 -42 1 -70 21 -88 22 -20 0 23 3 35 6 27 14 -42
17 -44 23 -10 6 26 8 13 9 -47 1 -71 -1 -82 -15 -76 -13 5 -13 8 -2 15 9 7 8
8 -6 4 -10 -4 -34 -1 -52 6 l-34 12 0 73 c0 58 3 73 15 73 8 0 15 -8 16 -17z
m-161 -196 c13 -5 13 -6 -1 -6 -8 -1 -24 6 -35 15 -19 15 -19 15 1 6 11 -5 27
-12 35 -15z m60 -22 c27 -15 20 -19 -17 -9 -13 4 -23 10 -23 15 0 12 11 11 40
-6z m-63 -37 c-3 -7 -5 -2 -5 12 0 14 2 19 5 13 2 -7 2 -19 0 -25z m118 12 c3
-5 2 -10 -4 -10 -5 0 -13 5 -16 10 -3 6 -2 10 4 10 5 0 13 -4 16 -10z m2089
-20 c19 0 49 -37 37 -44 -13 -9 -61 41 -60 62 1 16 2 15 6 0 2 -10 10 -18 17
-18z m-2008 -11 c3 -5 -7 -4 -23 3 -41 17 -53 30 -15 17 18 -6 35 -15 38 -20z
m-79 -21 c-3 -7 -5 -2 -5 12 0 14 2 19 5 13 2 -7 2 -19 0 -25z m108 12 c3 -5
1 -10 -4 -10 -6 0 -11 5 -11 10 0 6 2 10 4 10 3 0 8 -4 11 -10z m3111 -17 c-7
-7 -26 7 -26 19 0 6 6 6 15 -2 9 -7 13 -15 11 -17z m-354 -55 c39 -12 36 -27
-7 -28 -28 -1 -65 -34 -65 -58 0 -22 -18 -32 -56 -32 -13 0 -24 -4 -24 -10 0
-13 -97 -13 -104 -1 -11 17 59 96 104 119 49 25 94 28 152 10z m-2977 -18 c3
-6 -1 -7 -9 -4 -18 7 -21 14 -7 14 6 0 13 -4 16 -10z m753 -81 c45 -19 68 -39
45 -39 -23 0 -193 77 -193 87 0 13 19 7 148 -48z m1032 -39 c-8 -5 -19 -10
-25 -10 -5 0 -3 5 5 10 8 5 20 10 25 10 6 0 3 -5 -5 -10z m331 -66 c57 -17
113 -43 107 -49 -2 -2 -20 0 -41 4 -20 5 -35 5 -32 1 3 -5 -1 -10 -7 -13 -7
-2 4 -11 25 -20 29 -13 37 -22 37 -41 0 -15 5 -26 12 -26 7 0 -6 -18 -27 -40
-21 -22 -45 -40 -52 -40 -8 0 -16 -13 -19 -30 -4 -16 -10 -30 -15 -30 -5 0 -9
-5 -9 -11 0 -40 -100 -64 -145 -35 -23 15 -29 14 -26 -6 0 -5 -5 -8 -11 -8 -7
-1 4 -10 24 -20 46 -25 51 -33 43 -71 -14 -63 -114 -76 -189 -25 -46 31 -56
27 -27 -10 28 -36 26 -52 -6 -60 -16 -3 -42 -9 -58 -14 -48 -12 -95 -1 -95 21
0 20 -15 26 -25 9 -3 -5 -21 -10 -40 -10 -32 0 -34 2 -40 44 -5 32 -3 54 9 77
9 18 16 45 16 61 0 66 63 142 148 180 23 10 42 25 42 33 0 20 56 73 104 97 97
50 199 61 297 32z m-561 -38 c0 -2 -7 -7 -16 -10 -8 -3 -12 -2 -9 4 6 10 25
14 25 6z m-41 -20 c-2 -2 -71 -34 -154 -71 -82 -36 -155 -72 -160 -79 -8 -11
-14 -9 -28 10 -17 22 -16 24 2 33 14 8 22 7 30 -3 12 -14 23 -11 177 60 109
49 147 63 133 50z m568 -320 c11 -11 -10 -46 -27 -46 -14 0 -40 42 -40 66 0 4
62 -14 67 -20z"/>
<path d="M4900 7930 c-6 -11 -8 -20 -6 -20 3 0 10 9 16 20 6 11 8 20 6 20 -3
0 -10 -9 -16 -20z"/>
<path d="M4440 8265 c-14 -8 -20 -14 -14 -15 5 0 19 7 30 15 24 18 16 19 -16
0z"/>
<path d="M4000 5813 c99 -49 149 -70 154 -65 3 3 -29 20 -72 39 -84 36 -138
54 -82 26z"/>
<path d="M4557 5679 c-43 -25 -48 -64 -47 -382 0 -165 2 -302 3 -304 2 -1 29
21 60 50 33 32 72 58 97 66 l40 12 0 179 0 180 43 0 c31 0 38 3 27 10 -8 5
-27 10 -42 10 -20 0 -28 5 -28 18 0 36 -32 112 -60 142 -29 31 -61 38 -93 19z"/>
<path d="M3925 5381 c6 -5 62 -30 125 -57 63 -26 123 -56 133 -68 12 -13 29
-20 45 -18 15 1 53 -11 85 -27 32 -15 53 -22 45 -15 -7 7 -62 34 -123 60 -239
102 -319 134 -310 125z"/>
<path d="M4194 4920 c0 -91 2 -128 3 -82 2 45 2 119 0 165 -1 45 -3 8 -3 -83z"/>
<path d="M4618 5033 c7 -3 16 -2 19 1 4 3 -2 6 -13 5 -11 0 -14 -3 -6 -6z"/>
<path d="M4760 5010 c8 -5 20 -10 25 -10 6 0 3 5 -5 10 -8 5 -19 10 -25 10 -5
0 -3 -5 5 -10z"/>
<path d="M4820 4985 c14 -8 30 -14 35 -14 6 0 -1 6 -15 14 -14 8 -29 14 -35
14 -5 0 1 -6 15 -14z"/>
<path d="M4890 4754 c0 -30 -5 -64 -10 -74 -8 -16 -8 -18 5 -14 11 5 15 23 15
75 0 38 -2 69 -5 69 -3 0 -5 -25 -5 -56z"/>
<path d="M4577 4714 c21 -15 21 -17 6 -42 l-17 -27 23 23 c18 18 30 22 54 18
32 -5 32 -5 -3 7 -19 7 -46 18 -60 25 -25 12 -25 12 -3 -4z"/>
<path d="M4090 4616 c0 -3 9 -10 20 -16 11 -6 20 -8 20 -6 0 3 -9 10 -20 16
-11 6 -20 8 -20 6z"/>
<path d="M4124 4365 c0 -71 1 -99 3 -62 2 37 2 96 0 130 -2 34 -3 4 -3 -68z"/>
<path d="M4822 4205 c0 -16 2 -22 5 -12 2 9 2 23 0 30 -3 6 -5 -1 -5 -18z"/>
<path d="M3795 4210 c3 -5 14 -10 23 -10 15 0 15 2 2 10 -20 13 -33 13 -25 0z"/>
<path d="M3792 4160 c0 -14 2 -19 5 -12 2 6 2 18 0 25 -3 6 -5 1 -5 -13z"/>
<path d="M4310 4000 c8 -5 20 -10 25 -10 6 0 3 5 -5 10 -8 5 -19 10 -25 10 -5
0 -3 -5 5 -10z"/>
<path d="M4380 3970 c8 -5 20 -10 25 -10 6 0 3 5 -5 10 -8 5 -19 10 -25 10 -5
0 -3 -5 5 -10z"/>
<path d="M4530 3910 c8 -5 20 -10 25 -10 6 0 3 5 -5 10 -8 5 -19 10 -25 10 -5
0 -3 -5 5 -10z"/>
<path d="M4881 3864 c0 -11 3 -14 6 -6 3 7 2 16 -1 19 -3 4 -6 -2 -5 -13z"/>
<path d="M4645 3860 c3 -6 12 -10 18 -10 7 0 45 -14 86 -31 40 -17 75 -29 77
-27 2 2 -31 18 -74 35 -104 41 -114 45 -107 33z"/>
<path d="M4843 3777 c0 -9 13 -14 36 -15 l36 -1 -34 15 c-40 17 -38 17 -38 1z"/>
<path d="M4505 3750 c-3 -5 -1 -10 4 -10 6 0 11 5 11 10 0 6 -2 10 -4 10 -3 0
-8 -4 -11 -10z"/>
<path d="M4999 3716 c6 -7 8 -16 4 -19 -3 -4 3 -7 15 -7 34 0 35 17 1 29 -26
9 -29 8 -20 -3z"/>
<path d="M4407 3696 c23 -14 51 -27 63 -31 11 -4 17 -11 14 -17 -4 -7 -2 -8 5
-4 7 4 35 -4 64 -18 29 -14 61 -27 72 -29 11 -2 19 -9 17 -16 -2 -9 3 -11 13
-8 8 4 15 2 15 -3 0 -6 5 -10 10 -10 6 0 10 6 10 13 0 8 -47 32 -107 57 -60
24 -129 54 -155 67 -62 30 -75 29 -21 -1z"/>
<path d="M5070 3690 c8 -5 20 -10 25 -10 6 0 3 5 -5 10 -8 5 -19 10 -25 10 -5
0 -3 -5 5 -10z"/>
<path d="M3885 3670 c-3 -5 3 -10 14 -10 12 0 21 5 21 10 0 6 -6 10 -14 10 -8
0 -18 -4 -21 -10z"/>
<path d="M3730 3631 c0 -23 43 -46 195 -105 l169 -66 26 26 25 27 -25 -7 c-28
-7 -152 32 -144 46 3 4 -1 5 -8 3 -8 -3 -64 14 -126 39 -62 24 -112 41 -112
37z"/>
<path d="M4234 3570 c-12 -5 -25 -14 -29 -20 -4 -7 4 -6 21 3 16 8 36 17 44
20 13 5 13 5 0 6 -8 0 -25 -4 -36 -9z"/>
<path d="M4700 3570 c0 -5 3 -9 8 -8 4 1 17 -3 30 -10 12 -7 22 -9 22 -4 0 5
-11 14 -25 20 -32 15 -35 15 -35 2z"/>
<path d="M4162 3529 c-12 -19 -11 -19 8 -9 11 6 18 15 15 21 -8 12 -8 12 -23
-12z"/>
<path d="M4773 3537 c0 -7 13 -13 31 -14 l30 -1 -25 14 c-30 17 -36 17 -36 1z"/>
<path d="M3960 3480 c8 -5 20 -10 25 -10 6 0 3 5 -5 10 -8 5 -19 10 -25 10 -5
0 -3 -5 5 -10z"/>
<path d="M4018 3458 c12 -6 22 -15 22 -20 0 -5 -6 -6 -12 -2 -10 5 -10 4 -1
-6 14 -16 6 -40 -14 -40 -11 0 -14 -7 -10 -21 4 -15 0 -23 -14 -26 -21 -6 -24
-14 -9 -29 7 -7 6 -11 -5 -11 -8 0 -15 4 -15 8 0 4 -13 3 -30 -2 -16 -6 -27
-15 -24 -20 3 -5 -7 -9 -23 -9 -19 0 -24 -3 -15 -9 18 -11 -37 -31 -84 -31
-18 0 -36 -4 -39 -10 -3 -5 -1 -10 6 -10 7 0 10 -2 8 -5 -3 -2 -15 -2 -28 2
-17 4 -19 8 -9 14 10 7 11 9 0 9 -7 0 -11 4 -8 8 2 4 1 14 -3 21 -5 8 -11 -3
-15 -30 -4 -23 -5 -42 -4 -44 6 -3 244 -93 264 -99 20 -6 21 -2 26 87 3 52 9
100 14 108 5 8 10 23 11 34 2 11 17 42 33 68 17 27 30 50 30 52 0 4 -60 25
-69 24 -3 0 4 -5 17 -11z m-158 -262 c0 -2 -7 -7 -16 -10 -8 -3 -12 -2 -9 4 6
10 25 14 25 6z m30 -31 c14 -8 21 -14 15 -14 -5 0 -21 6 -35 14 -14 8 -20 14
-15 14 6 0 21 -6 35 -14z"/>
<path d="M3897 3407 c-3 -9 -2 -19 4 -23 15 -9 18 -2 9 20 -6 17 -7 18 -13 3z"/>
<path d="M3712 3320 c0 -14 2 -19 5 -12 2 6 2 18 0 25 -3 6 -5 1 -5 -13z"/>
<path d="M3665 3273 c-5 -21 -8 -41 -7 -45 1 -4 -7 -28 -18 -53 -11 -26 -17
-52 -14 -57 5 -7 -2 -9 -21 -4 -19 5 -31 3 -36 -6 -13 -19 -11 -28 6 -28 16 0
17 2 -20 -59 -23 -37 -69 -81 -86 -81 -10 0 -21 -5 -24 -11 -4 -6 -13 -8 -20
-5 -7 2 -18 -1 -25 -7 -10 -9 -11 -9 -5 2 5 9 4 12 -3 7 -7 -4 -12 -20 -12
-37 0 -17 -5 -29 -13 -29 -25 0 -87 -71 -87 -99 0 -37 -66 -101 -104 -101 -18
0 -25 -4 -20 -12 4 -6 -9 -2 -29 11 l-37 23 -11 -29 c-7 -15 -13 -46 -15 -68
-2 -21 -7 -48 -13 -60 -5 -11 -15 -35 -23 -52 -27 -68 -105 -23 -91 51 6 32 8
32 -56 -11 -19 -13 -48 -23 -65 -24 l-31 -1 40 -19 c22 -11 55 -18 73 -16 24
2 36 -2 43 -15 5 -10 18 -18 29 -18 10 0 22 -4 25 -10 3 -5 17 -10 31 -10 13
0 33 -5 44 -12 15 -10 29 -9 70 6 34 12 64 16 93 12 23 -3 58 -7 77 -9 19 -2
101 -31 181 -64 l146 -60 42 84 c22 46 59 113 81 149 22 36 40 69 40 73 0 10
-365 170 -422 185 -16 3 -28 11 -28 16 0 14 118 89 220 140 47 23 86 43 87 44
4 4 24 338 20 342 -2 3 -8 -12 -12 -33z m-308 -545 c-3 -7 -5 -2 -5 12 0 14 2
19 5 13 2 -7 2 -19 0 -25z m148 -67 c3 -5 0 -16 -7 -23 -7 -8 -18 -22 -24 -33
-14 -25 -62 -60 -70 -52 -6 6 81 117 91 117 2 0 6 -4 10 -9z m-148 -133 c-3
-7 -5 -2 -5 12 0 14 2 19 5 13 2 -7 2 -19 0 -25z m0 -50 c-3 -8 -6 -5 -6 6 -1
11 2 17 5 13 3 -3 4 -12 1 -19z m316 -93 c-3 -9 -8 -14 -10 -11 -3 3 -2 9 2
15 9 16 15 13 8 -4z m-223 -15 c0 -5 -7 -7 -15 -4 -8 4 -15 8 -15 10 0 2 7 4
15 4 8 0 15 -4 15 -10z m96 -41 c8 -14 -10 -11 -32 6 -18 13 -18 14 4 8 12 -3
25 -9 28 -14z m49 -19 c8 -13 -5 -13 -25 0 -13 8 -13 10 2 10 9 0 20 -4 23
-10z"/>
<path d="M4230 2410 c8 -5 20 -10 25 -10 6 0 3 5 -5 10 -8 5 -19 10 -25 10 -5
0 -3 -5 5 -10z"/>
<path d="M4280 2390 c8 -5 20 -10 25 -10 6 0 3 5 -5 10 -8 5 -19 10 -25 10 -5
0 -3 -5 5 -10z"/>
<path d="M4330 2370 c8 -5 20 -10 25 -10 6 0 3 5 -5 10 -8 5 -19 10 -25 10 -5
0 -3 -5 5 -10z"/>
<path d="M4450 2320 c19 -11 40 -19 45 -19 6 0 -6 8 -25 19 -19 11 -39 19 -45
19 -5 0 6 -8 25 -19z"/>
<path d="M4290 2286 c0 -2 41 -20 92 -41 l91 -36 21 23 21 22 -21 -17 c-20
-16 -25 -15 -110 18 -95 37 -94 37 -94 31z"/>
<path d="M2583 2253 c9 -14 87 -33 129 -32 21 1 7 6 -39 14 -40 8 -78 17 -84
21 -7 4 -9 3 -6 -3z"/>
<path d="M3243 2178 c-6 -18 -14 -47 -18 -64 -4 -21 -14 -34 -27 -37 -15 -4
-19 -11 -15 -26 5 -20 1 -21 -61 -22 -62 -1 -65 -2 -32 -11 19 -5 73 -8 120
-6 91 5 147 25 170 61 12 20 8 26 -50 79 -34 32 -66 58 -69 58 -4 0 -12 -15
-18 -32z"/>
<path d="M4020 2130 c8 -5 20 -10 25 -10 6 0 3 5 -5 10 -8 5 -19 10 -25 10 -5
0 -3 -5 5 -10z"/>
<path d="M3800 2055 c0 -2 10 -10 23 -16 20 -11 21 -11 8 4 -13 16 -31 23 -31
12z"/>
<path d="M3027 2039 c7 -7 15 -10 18 -7 3 3 -2 9 -12 12 -14 6 -15 5 -6 -5z"/>
<path d="M7578 2033 c7 -3 16 -2 19 1 4 3 -2 6 -13 5 -11 0 -14 -3 -6 -6z"/>
<path d="M3850 2022 c0 -6 9 -12 20 -15 11 -3 20 -3 20 -1 0 2 -9 8 -20 14
-11 6 -20 7 -20 2z"/>
<path d="M4080 1840 c8 -5 20 -10 25 -10 6 0 3 5 -5 10 -8 5 -19 10 -25 10 -5
0 -3 -5 5 -10z"/>
<path d="M4150 1810 c8 -5 20 -10 25 -10 6 0 3 5 -5 10 -8 5 -19 10 -25 10 -5
0 -3 -5 5 -10z"/>
<path d="M4200 1790 c8 -5 20 -10 25 -10 6 0 3 5 -5 10 -8 5 -19 10 -25 10 -5
0 -3 -5 5 -10z"/>
<path d="M4342 1745 c0 -16 2 -22 5 -12 2 9 2 23 0 30 -3 6 -5 -1 -5 -18z"/>
<path d="M6602 1677 c-7 -8 -8 -18 -4 -22 4 -5 2 -5 -4 -2 -6 3 -33 -2 -60
-13 l-49 -19 68 -1 c54 0 71 4 87 20 21 21 26 40 11 40 -5 0 -16 2 -24 5 -7 3
-19 0 -25 -8z"/>
<path d="M4946 3463 c-6 -14 -5 -15 5 -6 7 7 10 15 7 18 -3 3 -9 -2 -12 -12z"/>
<path d="M4982 3452 c-8 -6 -2 -9 18 -9 20 0 26 3 18 9 -7 4 -15 8 -18 8 -3 0
-11 -4 -18 -8z"/>
<path d="M5080 3415 c14 -8 30 -14 35 -14 6 0 -1 6 -15 14 -14 8 -29 14 -35
14 -5 0 1 -6 15 -14z"/>
<path d="M4410 2840 c8 -5 20 -10 25 -10 6 0 3 5 -5 10 -8 5 -19 10 -25 10 -5
0 -3 -5 5 -10z"/>
</g>
</svg>
